<svg width="21" height="26" viewBox="0 0 21 26" fill="none" xmlns="http://www.w3.org/2000/svg">
<path d="M10.4676 24.5636C10.4326 24.5972 10.3995 24.6289 10.3684 24.6586C10.3373 24.6289 10.3042 24.5972 10.2692 24.5636C9.9888 24.2943 9.58731 23.9018 9.10514 23.4107C8.14023 22.4279 6.85502 21.0533 5.57119 19.4842C4.28592 17.9133 3.01068 16.1579 2.05901 14.4132C1.10224 12.6591 0.5 10.965 0.5 9.50439C0.5 4.5615 4.86553 0.5 10.3684 0.5C15.8713 0.5 20.2368 4.5615 20.2368 9.50439C20.2368 10.965 19.6346 12.6591 18.6778 14.4132C17.7262 16.1579 16.4509 17.9133 15.1657 19.4842C13.8818 21.0533 12.5966 22.4279 11.6317 23.4107C11.1495 23.9018 10.748 24.2943 10.4676 24.5636ZM17.7807 9.50439C17.7807 5.70479 14.4407 2.66813 10.3684 2.66813C6.33237 2.66813 2.95614 5.70324 2.95614 9.50439C2.95614 13.3388 6.33406 16.3406 10.3684 16.3406C14.439 16.3406 17.7807 13.3372 17.7807 9.50439Z" fill="#F71717" stroke="#FFF9F9"/>
</svg>
