<svg width="21" height="20" viewBox="0 0 21 20" fill="none" xmlns="http://www.w3.org/2000/svg">
<path d="M9.83169 10.3621L9.81312 10.3444L9.79284 10.3288L9.57237 10.1584V5.48007H11.1645V9.4424V9.65689L11.3199 9.8047L12.2012 10.6429L12.2112 10.6525L12.2217 10.6614L12.7836 11.1395L11.6842 12.1852L11.1473 11.6145L11.1378 11.6044L11.1277 11.5948L9.83169 10.3621ZM0.5 9.86152C0.5 4.73715 4.91802 0.5 10.3684 0.5C15.8188 0.5 20.2368 4.73715 20.2368 9.86152C20.2368 14.9859 15.8188 19.223 10.3684 19.223C4.91802 19.223 0.5 14.9859 0.5 9.86152ZM18.6447 9.86152C18.6447 5.46953 14.9235 1.96538 10.3684 1.96538C5.8133 1.96538 2.09211 5.46953 2.09211 9.86152C2.09211 14.2535 5.8133 17.7577 10.3684 17.7577C14.9235 17.7577 18.6447 14.2535 18.6447 9.86152Z" fill="#F71717" stroke="white"/>
</svg>
