<svg width="18" height="62" viewBox="0 0 18 62" fill="none" xmlns="http://www.w3.org/2000/svg">
<path d="M9 59.9535C8.76125 59.3152 8.44121 58.4444 8.06499 57.3835C7.22347 55.0106 6.10141 51.6883 4.9795 47.892C2.73169 40.2859 0.5 30.8271 0.5 23.2898C0.5 17.0169 1.49854 11.3718 3.09769 7.31339C3.89785 5.28271 4.83859 3.67434 5.85831 2.58197C6.87718 1.49052 7.93899 0.949219 9 0.949219C10.061 0.949219 11.1228 1.49052 12.1417 2.58197C13.1614 3.67434 14.1022 5.28271 14.9023 7.31339C16.5015 11.3718 17.5 17.0169 17.5 23.2898C17.5 30.8271 15.2683 40.2859 13.0205 47.892C11.8986 51.6883 10.7765 55.0106 9.93501 57.3835C9.55879 58.4444 9.23875 59.3152 9 59.9535ZM15.5 23.2898C15.5 19.056 14.826 15.1844 13.7142 12.3529C13.1588 10.9387 12.4844 9.75871 11.7086 8.92388C10.932 8.08822 10.0174 7.56274 9 7.56274C7.98892 7.56274 7.07801 8.08943 6.30372 8.92424C5.52974 9.75872 4.85452 10.9383 4.29731 12.3524C3.18169 15.1836 2.5 19.0553 2.5 23.2898C2.5 27.5619 3.18155 31.4339 4.29753 34.2563C4.85493 35.666 5.53048 36.8388 6.30503 37.6675C7.08025 38.4969 7.99086 39.0168 9 39.0168C10.0154 39.0168 10.9298 38.498 11.7073 37.6678C12.4837 36.8388 13.1584 35.6656 13.7139 34.2558C14.8261 31.4331 15.5 27.5612 15.5 23.2898Z" fill="#F71717" stroke="#FFF9F9"/>
</svg>
