<svg width="26" height="36" viewBox="0 0 26 36" fill="none" xmlns="http://www.w3.org/2000/svg">
<path d="M13.0332 34.6179C12.9764 34.5585 12.9134 34.4923 12.8444 34.4196C12.4962 34.0521 11.998 33.5167 11.3997 32.847C10.2026 31.5071 8.60766 29.6323 7.01386 27.4915C5.41886 25.3491 3.83243 22.9499 2.64663 20.5607C1.45685 18.1635 0.692383 15.8195 0.692383 13.776C0.692383 6.89063 6.20757 1.33984 13.0332 1.33984C19.8588 1.33984 25.374 6.89063 25.374 13.776C25.374 15.8195 24.6096 18.1635 23.4198 20.5607C22.234 22.9499 20.6476 25.3491 19.0526 27.4915C17.4588 29.6323 15.8638 31.5071 14.6667 32.847C14.0684 33.5167 13.5702 34.0521 13.222 34.4196C13.1531 34.4923 13.09 34.5585 13.0332 34.6179ZM22.0938 13.776C22.0938 8.7617 18.0656 4.65188 13.0332 4.65188C8.04528 4.65188 3.97266 8.76007 3.97266 13.776C3.97266 18.8366 8.04691 22.9 13.0332 22.9C18.0639 22.9 22.0938 18.835 22.0938 13.776Z" fill="#F71717" stroke="#FFF9F9"/>
</svg>
