<svg width="21" height="54" viewBox="0 0 21 54" fill="none" xmlns="http://www.w3.org/2000/svg">
<path d="M8.72352 0.357567C3.91312 0.357567 0 10.6528 0 23.3088C0 35.9647 3.91312 46.2599 8.72352 46.2599C10.1941 46.2599 11.6397 45.3419 12.861 43.5714C12.9588 43.8811 13.0673 44.1665 13.185 44.4238L15.6774 50.9813C15.9076 51.6626 16.1882 52.213 16.5021 52.5987C16.816 52.9843 17.1566 53.1971 17.5029 53.2239C17.8492 53.2507 18.1939 53.091 18.5159 52.7546C18.8379 52.4182 19.1304 51.9122 19.3754 51.2677C19.6204 50.6232 19.8127 49.8537 19.9405 49.0066C20.0684 48.1594 20.1291 47.2524 20.1189 46.3413C20.1087 45.4302 20.0278 44.5342 19.8813 43.7083C19.7347 42.8824 19.5255 42.144 19.2665 41.5385L16.7741 34.9811C16.6527 34.6615 16.519 34.3758 16.3753 34.1286C17.0483 30.9154 17.472 27.1777 17.472 23.2432C17.472 10.5872 13.5588 0.291992 8.74845 0.291992L8.72352 0.357567ZM8.72352 6.91505C12.188 6.91505 14.9546 14.1939 14.9546 23.3088C14.9546 27.6367 14.3564 31.6368 13.3096 34.5876C13.2847 34.6532 13.2598 34.7188 13.2348 34.7843C13.1171 35.0417 13.0086 35.3271 12.9108 35.6368C11.8141 38.2598 10.3187 39.768 8.6986 39.768C5.23411 39.768 2.46751 32.4892 2.46751 23.3743C2.46751 14.2594 5.23411 6.98062 8.6986 6.98062L8.72352 6.91505Z" fill="black"/>
</svg>
