<svg width="24" height="23" viewBox="0 0 24 23" fill="none" xmlns="http://www.w3.org/2000/svg">
<path d="M10.0499 0.816838C4.5081 0.816838 0 5.10088 0 10.3672C0 15.6336 4.5081 19.9177 10.0499 19.9177C11.744 19.9177 13.4094 19.5356 14.8164 18.7989C14.9291 18.9278 15.0541 19.0465 15.1897 19.1536L18.0611 21.8823C18.3263 22.1658 18.6496 22.3949 19.0112 22.5553C19.3729 22.7158 19.7652 22.8043 20.1642 22.8155C20.5631 22.8266 20.9603 22.7602 21.3312 22.6202C21.7022 22.4802 22.0391 22.2697 22.3213 22.0015C22.6036 21.7333 22.8251 21.4131 22.9724 21.0606C23.1197 20.7081 23.1897 20.3307 23.1779 19.9515C23.1662 19.5724 23.073 19.1996 22.9041 18.8559C22.7353 18.5122 22.4943 18.205 22.1959 17.953L19.3245 15.2243C19.1847 15.0913 19.0307 14.9725 18.8651 14.8696C19.6404 13.5325 20.1285 11.9772 20.1285 10.34C20.1285 5.07359 15.6204 0.789551 10.0786 0.789551L10.0499 0.816838ZM10.0499 3.54553C14.0412 3.54553 17.2284 6.57437 17.2284 10.3672C17.2284 12.1682 16.5393 13.8327 15.3333 15.0606C15.3046 15.0879 15.2759 15.1152 15.2471 15.1425C15.1115 15.2496 14.9866 15.3683 14.8739 15.4972C13.6104 16.5887 11.8876 17.2163 10.0212 17.2163C6.02994 17.2163 2.84269 14.1874 2.84269 10.3945C2.84269 6.60166 6.02994 3.57281 10.0212 3.57281L10.0499 3.54553Z" fill="black"/>
</svg>
