<svg width="24" height="35" viewBox="0 0 24 35" fill="none" xmlns="http://www.w3.org/2000/svg">
<path d="M4.63788 3.78808H4.13788V4.28808V25.7285V26.2285H4.63788H18.5515H19.0515V25.7285V4.28808V3.78808H18.5515H4.63788ZM0.5 0.814735C0.5 0.655385 0.60953 0.5 0.881197 0.5H22.3546C22.6262 0.5 22.7358 0.655384 22.7358 0.814735V33.5328C22.7358 33.6921 22.6262 33.8475 22.3546 33.8475H0.881197C0.609529 33.8475 0.5 33.6921 0.5 33.5328V0.814735ZM14.4136 30.0166C14.4136 28.5036 13.1318 27.3725 11.5947 27.3725C10.0576 27.3725 8.77576 28.5036 8.77576 30.0166C8.77576 31.5296 10.0576 32.6606 11.5947 32.6606C13.1318 32.6606 14.4136 31.5296 14.4136 30.0166Z" fill="#F71717" stroke="white"/>
</svg>
