<svg width="21" height="19" viewBox="0 0 21 19" fill="none" xmlns="http://www.w3.org/2000/svg">
<path d="M0.678694 0.900581C0.813444 0.675127 0.995611 0.547017 1.17113 0.503714C1.18032 0.503938 1.18951 0.504384 1.19869 0.505053L1.24413 0.508362L1.28942 0.503404C1.33087 0.498865 1.37247 0.498865 1.41392 0.503404L1.44105 0.506374H1.46834H6.64717C6.77046 0.51008 6.89962 0.554257 7.02072 0.647627C7.14464 0.743169 7.25556 0.887428 7.33068 1.07326L7.33052 1.07333L7.33585 1.08556L8.32103 3.34715L8.45185 3.64747H8.77942H20.2342C20.235 3.65365 20.2357 3.66058 20.2362 3.66829C20.2384 3.70466 20.2351 3.75199 20.2213 3.80703L18.1223 11.6563L18.1222 11.6563L18.1207 11.6624C18.0971 11.7552 18.0287 11.8687 17.928 11.959C17.822 12.054 17.7414 12.0707 17.7238 12.0707H8.6509C8.65093 12.0707 8.65094 12.0707 8.65092 12.0707C8.65043 12.0706 8.63144 12.0688 8.59409 12.0515C8.55279 12.0325 8.50279 12.0006 8.45165 11.9557C8.34352 11.8606 8.27446 11.7472 8.25293 11.6624L8.25299 11.6624L8.25094 11.6548L7.18798 7.72845L6.12502 3.80208L6.12517 3.80204L6.12169 3.79033L5.88835 3.00505L5.7821 2.64747H5.40907H1.52019H1.47218L1.42504 2.65661C1.24512 2.69148 1.04791 2.64313 0.872578 2.4893C0.692754 2.33153 0.553369 2.07457 0.512189 1.76275C0.471059 1.45129 0.535682 1.13986 0.678694 0.900581ZM8.50165 17.2824C8.50165 16.585 8.93366 16.2118 9.29794 16.2118C9.66222 16.2118 10.0942 16.585 10.0942 17.2824C10.0942 17.9798 9.66222 18.3529 9.29794 18.3529C8.93366 18.3529 8.50165 17.9798 8.50165 17.2824ZM16.2794 17.2824C16.2794 16.585 16.7114 16.2118 17.0757 16.2118C17.44 16.2118 17.872 16.585 17.872 17.2824C17.872 17.9798 17.44 18.3529 17.0757 18.3529C16.7114 18.3529 16.2794 17.9798 16.2794 17.2824Z" fill="#F71717" stroke="white"/>
</svg>
