<svg width="18" height="47" viewBox="0 0 18 47" fill="none" xmlns="http://www.w3.org/2000/svg">
<path d="M1.13252 1.34877C1.13259 1.34867 1.13267 1.34857 1.13275 1.34847L1.17328 1.33619L1.20043 1.34442H1.27455H5.71223C5.71566 1.34753 5.71962 1.3513 5.72412 1.35584C5.76825 1.4004 5.83324 1.48991 5.90636 1.64598C6.05238 1.95768 6.18347 2.43206 6.27081 3.03025L6.27078 3.03026L6.27164 3.03573L7.12679 8.47069L7.19324 8.89297H7.62072H17.4152C17.4273 8.93449 17.4402 8.98825 17.4522 9.05582C17.5041 9.34859 17.5169 9.77301 17.4748 10.2331C17.4748 10.2336 17.4748 10.234 17.4747 10.2344L15.6521 29.1034L15.6519 29.1058C15.6106 29.5556 15.5077 29.9788 15.3878 30.2762C15.3385 30.3988 15.2923 30.4848 15.2562 30.5386H7.6466C7.60943 30.4827 7.56236 30.3952 7.51215 30.273C7.38934 29.9742 7.28185 29.5516 7.24097 29.1058L7.24068 29.1028L6.31801 19.6671L5.39534 10.2315L5.39536 10.2315L5.39486 10.2268L5.19232 8.33962L5.14439 7.89297H4.69518H1.31956H1.19386L1.15424 7.91424C1.10179 7.85652 1.02167 7.73826 0.933535 7.52418C0.719232 7.00364 0.560117 6.17085 0.513749 5.19876C0.467685 4.23307 0.538795 3.25376 0.70532 2.4824C0.788676 2.09629 0.889096 1.79426 0.992516 1.58093C1.04399 1.47475 1.09203 1.39925 1.13252 1.34877ZM5.69588 1.33144C5.69588 1.33142 5.69629 1.33163 5.69709 1.33216L5.69588 1.33144ZM17.3719 8.78354C17.3719 8.78348 17.3724 8.7842 17.3734 8.78581C17.3724 8.78439 17.3719 8.78359 17.3719 8.78354ZM15.2102 30.5958C15.2102 30.5954 15.2129 30.5925 15.2182 30.5882C15.2129 30.594 15.2102 30.5961 15.2102 30.5958ZM7.69752 30.6022C7.69749 30.6027 7.69407 30.6 7.68729 30.5924C7.69415 30.5979 7.69754 30.6017 7.69752 30.6022ZM7.44559 42.3615C7.44559 41.3377 7.56614 40.4449 7.75106 39.8246C7.84447 39.5113 7.94593 39.2962 8.03579 39.1707C8.04891 39.1523 8.06059 39.1374 8.07079 39.1253C8.081 39.1374 8.09269 39.1523 8.10581 39.1707C8.19567 39.2962 8.29713 39.5113 8.39054 39.8246C8.57546 40.4449 8.69601 41.3377 8.69601 42.3615C8.69601 43.3853 8.57546 44.2781 8.39054 44.8984C8.29713 45.2117 8.19567 45.4267 8.10581 45.5523C8.09269 45.5706 8.081 45.5855 8.07079 45.5976C8.06059 45.5855 8.04891 45.5706 8.03579 45.5523C7.94593 45.4267 7.84447 45.2117 7.75106 44.8984C7.56614 44.2781 7.44559 43.3853 7.44559 42.3615ZM8.12159 39.0772C8.12159 39.0773 8.12045 39.0781 8.11816 39.0791C8.12043 39.0776 8.12159 39.0771 8.12159 39.0772ZM8.02344 39.0791C8.02114 39.0781 8.02 39.0773 8.02001 39.0772C8.02002 39.0771 8.02116 39.0776 8.02344 39.0791ZM8.02001 45.6457C8.02 45.6456 8.02113 45.6449 8.02344 45.6438C8.02118 45.6453 8.02003 45.6459 8.02001 45.6457ZM8.11816 45.6438C8.12047 45.6449 8.1216 45.6456 8.12159 45.6457C8.12158 45.6459 8.12043 45.6453 8.11816 45.6438ZM14.1968 42.3615C14.1968 41.3377 14.3174 40.4449 14.5023 39.8246C14.5957 39.5113 14.6972 39.2962 14.787 39.1707C14.8001 39.1523 14.8118 39.1374 14.822 39.1253C14.8322 39.1374 14.8439 39.1523 14.8571 39.1707C14.9469 39.2962 15.0484 39.5113 15.1418 39.8246C15.3267 40.4449 15.4473 41.3377 15.4473 42.3615C15.4473 43.3853 15.3267 44.2781 15.1418 44.8984C15.0484 45.2117 14.9469 45.4267 14.8571 45.5523C14.8439 45.5706 14.8322 45.5855 14.822 45.5976C14.8118 45.5855 14.8001 45.5706 14.787 45.5523C14.6972 45.4267 14.5957 45.2117 14.5023 44.8984C14.3174 44.2781 14.1968 43.3853 14.1968 42.3615ZM14.8728 39.0772C14.8728 39.0773 14.8717 39.0781 14.8694 39.0791C14.8717 39.0776 14.8728 39.0771 14.8728 39.0772ZM14.7747 39.0791C14.7724 39.0781 14.7713 39.0773 14.7713 39.0772C14.7712 39.0771 14.7724 39.0776 14.7747 39.0791ZM14.7713 45.6457C14.7712 45.6456 14.7724 45.6449 14.7747 45.6438C14.7724 45.6453 14.7713 45.6458 14.7713 45.6457ZM14.8694 45.6438C14.8717 45.6449 14.8729 45.6456 14.8728 45.6457C14.8728 45.6458 14.8716 45.6453 14.8694 45.6438Z" fill="#F71717" stroke="white"/>
</svg>
