<svg width="17" height="67" viewBox="0 0 17 67" fill="none" xmlns="http://www.w3.org/2000/svg">
<path d="M3.39321 8.24451H2.89321V8.74451V50.221V50.721H3.39321H13.5729H14.0729V50.221V8.74451V8.24451H13.5729H3.39321ZM0.5 2.02532C0.5 1.61095 0.562657 1.2861 0.645165 1.08439C0.674161 1.01351 0.698288 0.972149 0.714575 0.949219H16.2854C16.3017 0.972149 16.3258 1.01351 16.3548 1.08439C16.4373 1.2861 16.5 1.61095 16.5 2.02532V65.3184C16.5 65.7328 16.4373 66.0577 16.3548 66.2594C16.3258 66.3302 16.3017 66.3716 16.2854 66.3945H0.714575C0.698288 66.3716 0.674162 66.3302 0.645165 66.2594C0.562657 66.0577 0.5 65.7328 0.5 65.3184V2.02532ZM0.737335 0.923917C0.737446 0.924335 0.735116 0.926782 0.730008 0.930001C0.734669 0.925108 0.737223 0.923498 0.737335 0.923917ZM16.2627 0.923917C16.2628 0.923499 16.2653 0.92511 16.27 0.929988C16.2649 0.926775 16.2626 0.924335 16.2627 0.923917ZM16.2627 66.4198C16.2625 66.4194 16.2649 66.417 16.27 66.4138C16.2653 66.4186 16.2628 66.4202 16.2627 66.4198ZM0.737334 66.4198C0.737222 66.4202 0.734677 66.4186 0.730031 66.4138C0.735123 66.417 0.737446 66.4194 0.737334 66.4198ZM10.6796 58.5163C10.6796 57.3083 10.4865 56.2037 10.1504 55.3821C9.98281 54.9724 9.76975 54.6087 9.50575 54.3398C9.23921 54.0683 8.89343 53.8686 8.48303 53.8686C8.07263 53.8686 7.72686 54.0683 7.46032 54.3398C7.19632 54.6087 6.98326 54.9724 6.81566 55.3821C6.4796 56.2037 6.28643 57.3083 6.28643 58.5163C6.28643 59.7242 6.4796 60.8289 6.81566 61.6504C6.98326 62.0601 7.19632 62.4239 7.46032 62.6928C7.72686 62.9643 8.07263 63.1639 8.48303 63.1639C8.89343 63.1639 9.23921 62.9643 9.50575 62.6928C9.76975 62.4239 9.98281 62.0601 10.1504 61.6504C10.4865 60.8289 10.6796 59.7242 10.6796 58.5163Z" fill="#F71717" stroke="white"/>
</svg>
