<svg width="25" height="35" viewBox="0 0 25 35" fill="none" xmlns="http://www.w3.org/2000/svg">
<path d="M10.6683 0.042726C4.7855 0.042726 0 6.75071 0 14.9968C0 23.2429 4.7855 29.9509 10.6683 29.9509C12.4667 29.9509 14.2346 29.3528 15.7281 28.1992C15.8478 28.401 15.9804 28.5869 16.1244 28.7546L19.1725 33.0272C19.4539 33.4711 19.7971 33.8297 20.181 34.081C20.5649 34.3322 20.9814 34.4709 21.4049 34.4883C21.8284 34.5058 22.25 34.4018 22.6438 34.1826C23.0376 33.9634 23.3953 33.6337 23.6948 33.2138C23.9944 32.7938 24.2296 32.2925 24.386 31.7405C24.5424 31.1885 24.6166 30.5976 24.6041 30.004C24.5916 29.4103 24.4928 28.8265 24.3135 28.2884C24.1342 27.7503 23.8784 27.2692 23.5617 26.8746L20.5136 22.602C20.3652 22.3938 20.2017 22.2077 20.0259 22.0466C20.8489 19.953 21.3671 17.5177 21.3671 14.9541C21.3671 6.70798 16.5816 0 10.6988 0L10.6683 0.042726ZM10.6683 4.31532C14.9051 4.31532 18.2885 9.05791 18.2885 14.9968C18.2885 17.8167 17.557 20.423 16.2768 22.3457C16.2463 22.3884 16.2158 22.4311 16.1853 22.4739C16.0414 22.6416 15.9087 22.8275 15.7891 23.0293C14.4479 24.7383 12.6191 25.721 10.6378 25.721C6.40098 25.721 3.01761 20.9785 3.01761 15.0395C3.01761 9.10063 6.40098 4.35805 10.6378 4.35805L10.6683 4.31532Z" fill="black"/>
</svg>
