<svg width="31" height="30" viewBox="0 0 31 30" fill="none" xmlns="http://www.w3.org/2000/svg">
<path d="M1.70442 0.505597C1.73027 0.505551 1.75613 0.506535 1.78196 0.508549L1.8306 0.512342L1.87905 0.506661C1.95481 0.49778 2.03087 0.49778 2.10663 0.506661L2.13564 0.510062H2.16485H9.80313C10.0303 0.516627 10.2656 0.60354 10.4828 0.782875C10.7035 0.965102 10.8954 1.23539 11.0237 1.57518L11.0235 1.57524L11.0283 1.587L12.4808 5.15751L12.6076 5.4691H12.944H29.9153C29.9518 5.4691 29.9656 5.47773 29.972 5.48217C29.9813 5.48869 30.0026 5.50759 30.0246 5.55554C30.0717 5.65828 30.0981 5.84811 30.041 6.09084L26.9457 18.4853L26.9456 18.4853L26.9443 18.4911C26.8928 18.7082 26.7567 18.9358 26.578 19.1074C26.3919 19.286 26.2229 19.3462 26.1312 19.3462H12.7528C12.6842 19.3462 12.5146 19.2903 12.3167 19.104C12.1296 18.9279 11.9894 18.7003 11.9397 18.4911L11.9398 18.4911L11.938 18.4839L10.3708 12.2851L8.80362 6.08631L8.80375 6.08627L8.80067 6.07517L8.45666 4.83541L8.35501 4.4691H7.97486H2.2413H2.18995L2.13967 4.47954C1.81043 4.54788 1.45382 4.4513 1.14267 4.15898C0.82548 3.86099 0.58979 3.38648 0.520557 2.8251C0.451453 2.26477 0.558986 1.7003 0.80446 1.26051C1.0433 0.832599 1.37585 0.583131 1.70442 0.505597ZM12.2972 27.2848C12.2972 26.0436 13.0275 25.3053 13.7084 25.3053C14.3893 25.3053 15.1196 26.0436 15.1196 27.2848C15.1196 28.526 14.3893 29.2643 13.7084 29.2643C13.0275 29.2643 12.2972 28.526 12.2972 27.2848ZM23.7644 27.2848C23.7644 26.0436 24.4947 25.3053 25.1756 25.3053C25.8565 25.3053 26.5868 26.0436 26.5868 27.2848C26.5868 28.526 25.8565 29.2643 25.1756 29.2643C24.4947 29.2643 23.7644 28.526 23.7644 27.2848Z" fill="#F71717" stroke="white"/>
</svg>
