<svg width="21" height="54" viewBox="0 0 21 54" fill="none" xmlns="http://www.w3.org/2000/svg">
<path d="M5.75 17.5284C5.75 12.9999 6.33652 8.91776 7.2687 5.98461C7.73572 4.51513 8.28081 3.36191 8.86165 2.58679C9.44933 1.80252 10.0085 1.48633 10.5 1.48633C10.9915 1.48633 11.5507 1.80252 12.1384 2.58679C12.7192 3.36191 13.2643 4.51513 13.7313 5.98461C14.6635 8.91776 15.25 12.9999 15.25 17.5284C15.25 22.057 14.6635 26.1391 13.7313 29.0723C13.2643 30.5417 12.7192 31.695 12.1384 32.4701C11.5507 33.2544 10.9915 33.5706 10.5 33.5706C10.0085 33.5706 9.44933 33.2544 8.86165 32.4701C8.28081 31.695 7.73572 30.5417 7.2687 29.0723C6.33652 26.1391 5.75 22.057 5.75 17.5284ZM0.5 47.3042C0.5 43.7773 1.05139 40.6144 1.93059 38.3099C2.37056 37.1566 2.88473 36.2392 3.4355 35.5991C3.85709 35.1091 4.28118 34.8024 4.69344 34.6567C5.38109 36.5183 6.19196 38.0799 7.10212 39.2068C8.07491 40.4111 9.22026 41.1874 10.5 41.1874C11.7797 41.1874 12.9251 40.4111 13.8979 39.2068C14.8083 38.0796 15.6193 36.5176 16.307 34.6554C16.7249 34.8008 17.1525 35.1083 17.5759 35.5995C18.1275 36.2392 18.6407 37.1562 19.079 38.3093C19.955 40.6136 20.5 43.7766 20.5 47.3042V53.4211H0.5V47.3042Z" fill="#F71717" stroke="white"/>
</svg>
