<svg width="31" height="30" viewBox="0 0 31 30" fill="none" xmlns="http://www.w3.org/2000/svg">
<path d="M14.336 15.8196L14.3176 15.8017L14.2974 15.7857L13.8759 15.4524V8.01252H16.6975V14.244V14.4551L16.8488 14.6024L18.1482 15.8668L18.1581 15.8765L18.1686 15.8856L19.2112 16.7934L17.2175 18.7337L16.2662 17.6991L16.2568 17.6888L16.2469 17.6791L14.336 15.8196ZM0.5 14.8763C0.5 6.9832 7.14224 0.5 15.2867 0.5C23.4311 0.5 30.0734 6.9832 30.0734 14.8763C30.0734 22.7693 23.4311 29.2525 15.2867 29.2525C7.14224 29.2525 0.5 22.7693 0.5 14.8763ZM27.2517 14.8763C27.2517 8.41373 21.8939 3.21907 15.2867 3.21907C8.67949 3.21907 3.32167 8.41373 3.32167 14.8763C3.32167 21.3388 8.67949 26.5335 15.2867 26.5335C21.8939 26.5335 27.2517 21.3388 27.2517 14.8763Z" fill="#F71717" stroke="white"/>
</svg>
