<svg width="21" height="26" viewBox="0 0 21 26" fill="none" xmlns="http://www.w3.org/2000/svg">
<path d="M10.6139 24.5929C10.5789 24.6265 10.5458 24.6582 10.5147 24.6879C10.4835 24.6582 10.4504 24.6265 10.4155 24.5929C10.135 24.3236 9.73355 23.9311 9.25138 23.44C8.28647 22.4572 7.00126 21.0826 5.71743 19.5135C4.43216 17.9426 3.15692 16.1872 2.20525 14.4425C1.24848 12.6884 0.64624 10.9943 0.64624 9.53368C0.64624 4.5908 5.01177 0.529297 10.5147 0.529297C16.0176 0.529297 20.3831 4.5908 20.3831 9.53368C20.3831 10.9943 19.7808 12.6884 18.8241 14.4425C17.8724 16.1872 16.5972 17.9426 15.3119 19.5135C14.0281 21.0826 12.7429 22.4572 11.7779 23.44C11.2958 23.9311 10.8943 24.3236 10.6139 24.5929ZM17.9269 9.53368C17.9269 5.73409 14.587 2.69743 10.5147 2.69743C6.47861 2.69743 3.10238 5.73254 3.10238 9.53368C3.10238 13.3681 6.4803 16.3699 10.5147 16.3699C14.5853 16.3699 17.9269 13.3665 17.9269 9.53368Z" fill="#F71717" stroke="#FFF9F9"/>
</svg>
