<svg width="28" height="31" viewBox="0 0 28 31" fill="none" xmlns="http://www.w3.org/2000/svg">
<path d="M7.42031 9.43638C7.42031 6.9277 8.17092 4.67475 9.35616 3.06081C10.5419 1.44617 12.1356 0.5 13.8406 0.5C15.5457 0.5 17.1393 1.44617 18.3251 3.06081C19.5103 4.67475 20.2609 6.9277 20.2609 9.43638C20.2609 11.9451 19.5103 14.198 18.3251 15.8119C17.1393 17.4266 15.5457 18.3728 13.8406 18.3728C12.1356 18.3728 10.5419 17.4266 9.35616 15.8119C8.17092 14.198 7.42031 11.9451 7.42031 9.43638ZM0.5 26.4219C0.5 22.6709 3.13221 19.6944 6.38814 19.3899C8.3145 21.6668 10.939 23.1473 13.8406 23.1473C16.7423 23.1473 19.3669 21.6667 21.2933 19.3897C24.5791 19.693 27.1812 22.6682 27.1812 26.4219V29.6964H0.5V26.4219Z" fill="#F71717" stroke="white"/>
</svg>
