<svg width="18" height="48" viewBox="0 0 18 48" fill="none" xmlns="http://www.w3.org/2000/svg">
<path d="M8.70243 25.6555L8.69583 25.6381L8.68796 25.6213L8.375 24.9517V12.5285H9.625V22.7522V22.8439L9.65757 22.9297L10.4226 24.9441L10.426 24.9531L10.4297 24.9619L11.2062 26.7913L10.1511 29.5696L9.83342 28.6345L9.83057 28.6261L9.82743 28.6179L8.70243 25.6555ZM0.5 23.7594C0.5 17.2874 1.50634 11.4255 3.11118 7.19959C3.91428 5.08486 4.85761 3.40552 5.87824 2.26376C6.89948 1.12132 7.9558 0.560547 9 0.560547C10.0442 0.560547 11.1005 1.12132 12.1218 2.26376C13.1424 3.40552 14.0857 5.08486 14.8888 7.19959C16.4937 11.4255 17.5 17.2874 17.5 23.7594C17.5 30.2313 16.4937 36.0933 14.8888 40.3192C14.0857 42.4339 13.1424 44.1132 12.1218 45.255C11.1005 46.3974 10.0442 46.9582 9 46.9582C7.9558 46.9582 6.89948 46.3974 5.87824 45.255C4.85761 44.1132 3.91428 42.4339 3.11118 40.3192C1.50634 36.0933 0.5 30.2313 0.5 23.7594ZM16.25 23.7594C16.25 18.7974 15.4903 14.2909 14.2431 11.0067C13.6201 9.36628 12.8658 8.00499 12.0021 7.04499C11.1384 6.08499 10.1249 5.48525 9 5.48525C7.87509 5.48525 6.86161 6.08499 5.99791 7.04499C5.1342 8.00499 4.37991 9.36628 3.75695 11.0067C2.5097 14.2909 1.75 18.7974 1.75 23.7594C1.75 28.7213 2.5097 33.2278 3.75695 36.5121C4.37991 38.1525 5.1342 39.5138 5.99791 40.4738C6.86161 41.4338 7.87509 42.0335 9 42.0335C10.1249 42.0335 11.1384 41.4338 12.0021 40.4738C12.8658 39.5138 13.6201 38.1525 14.2431 36.5121C15.4903 33.2278 16.25 28.7213 16.25 23.7594Z" fill="#F71717" stroke="white"/>
</svg>
