<svg width="24" height="23" viewBox="0 0 24 23" fill="none" xmlns="http://www.w3.org/2000/svg">
<path d="M10.0499 0.0272869C4.5081 0.0272869 0 4.31133 0 9.5777C0 14.8441 4.5081 19.1281 10.0499 19.1281C11.744 19.1281 13.4094 18.7461 14.8164 18.0093C14.9291 18.1382 15.0541 18.257 15.1897 18.3641L18.0611 21.0928C18.3263 21.3763 18.6496 21.6053 19.0112 21.7658C19.3729 21.9262 19.7652 22.0148 20.1642 22.0259C20.5631 22.0371 20.9603 21.9706 21.3312 21.8307C21.7022 21.6907 22.0391 21.4801 22.3213 21.2119C22.6036 20.9437 22.8251 20.6236 22.9724 20.271C23.1197 19.9185 23.1897 19.5411 23.1779 19.162C23.1662 18.7829 23.073 18.41 22.9041 18.0663C22.7353 17.7227 22.4943 17.4154 22.1959 17.1635L19.3245 14.4348C19.1847 14.3018 19.0307 14.1829 18.8651 14.08C19.6404 12.743 20.1285 11.1876 20.1285 9.55041C20.1285 4.28404 15.6204 0 10.0786 0L10.0499 0.0272869ZM10.0499 2.75598C14.0412 2.75598 17.2284 5.78482 17.2284 9.5777C17.2284 11.3786 16.5393 13.0431 15.3333 14.271C15.3046 14.2983 15.2759 14.3256 15.2471 14.3529C15.1115 14.46 14.9866 14.5787 14.8739 14.7076C13.6104 15.7991 11.8876 16.4267 10.0212 16.4267C6.02994 16.4267 2.84269 13.3979 2.84269 9.60499C2.84269 5.81211 6.02994 2.78326 10.0212 2.78326L10.0499 2.75598Z" fill="black"/>
</svg>
