<svg width="20" height="28" viewBox="0 0 20 28" fill="none" xmlns="http://www.w3.org/2000/svg">
<path d="M3.90914 2.95183H3.40914V3.45183V20.711V21.211H3.90914H15.6366H16.1366V20.711V3.45183V2.95183H15.6366H3.90914ZM0.5 0.655847C0.5 0.6115 0.515026 0.583325 0.541066 0.560332C0.570684 0.534179 0.634181 0.5 0.742737 0.5H18.8421C18.9506 0.5 19.0141 0.534179 19.0437 0.560332C19.0698 0.583326 19.0848 0.6115 19.0848 0.655847V26.9933C19.0848 27.0376 19.0698 27.0658 19.0437 27.0888C19.0141 27.1149 18.9506 27.1491 18.8421 27.1491H0.742737C0.634181 27.1491 0.570684 27.1149 0.541066 27.0888C0.515026 27.0658 0.5 27.0376 0.5 26.9933V0.655847ZM12.2274 24.1628C12.2274 22.8635 11.0833 21.9369 9.77285 21.9369C8.46243 21.9369 7.31828 22.8635 7.31828 24.1628C7.31828 25.4621 8.46243 26.3887 9.77285 26.3887C11.0833 26.3887 12.2274 25.4621 12.2274 24.1628Z" fill="#F71717" stroke="white"/>
</svg>
