<svg width="29" height="27" viewBox="0 0 29 27" fill="none" xmlns="http://www.w3.org/2000/svg">
<path d="M16.7344 20.2605C18.9686 20.2605 21.7614 17.6603 21.7614 15.5802C21.7614 17.6603 24.5543 20.2605 26.7886 20.2605C24.5543 20.2605 21.7614 22.8609 21.7614 24.941C21.7614 22.8609 18.9686 20.2605 16.7344 20.2605Z" fill="white"/>
<path d="M10.9767 3.45916L12.9318 5.2793L14.8868 3.45916C16.8919 1.59223 20.143 1.59223 22.1481 3.45916C24.1532 5.32599 24.1532 8.35291 22.1481 10.2197L12.9317 18.8006L3.71535 10.2197C1.71012 8.35291 1.71012 5.32599 3.71535 3.45916C5.72046 1.59223 8.9716 1.59223 10.9767 3.45916Z" fill="#D7E0FF"/>
<path d="M16.7344 20.2605C18.9686 20.2605 21.7614 17.6603 21.7614 15.5802C21.7614 17.6603 24.5543 20.2605 26.7886 20.2605C24.5543 20.2605 21.7614 22.8609 21.7614 24.941C21.7614 22.8609 18.9686 20.2605 16.7344 20.2605Z" stroke="#4147D5" stroke-width="2"/>
<path d="M10.9767 3.45916L12.9318 5.2793L14.8868 3.45916C16.8919 1.59223 20.143 1.59223 22.1481 3.45916C24.1532 5.32599 24.1532 8.35291 22.1481 10.2197L12.9317 18.8006L3.71535 10.2197C1.71012 8.35291 1.71012 5.32599 3.71535 3.45916C5.72046 1.59223 8.9716 1.59223 10.9767 3.45916Z" stroke="#4147D5" stroke-width="2"/>
</svg>
