<svg width="29" height="27" viewBox="0 0 29 27" fill="none" xmlns="http://www.w3.org/2000/svg">
<path d="M24.7709 2.8125V9.5625H4.22925V2.8125C4.23116 2.21631 4.48639 1.64505 4.93919 1.22348C5.39198 0.801905 6.00556 0.564281 6.64591 0.5625H22.3542C22.9946 0.564281 23.6082 0.801905 24.061 1.22348C24.5138 1.64505 24.769 2.21631 24.7709 2.8125Z" fill="#DFF9FF"/>
<path d="M22.3542 0.5625H6.64591C6.00556 0.564281 5.39198 0.801905 4.93919 1.22348C4.48639 1.64505 4.23116 2.21631 4.22925 2.8125V7.1235C4.23116 6.52731 4.48639 5.95605 4.93919 5.53448C5.39198 5.11291 6.00556 4.87528 6.64591 4.8735H22.3542C22.9946 4.87528 23.6082 5.11291 24.061 5.53448C24.5138 5.95605 24.769 6.52731 24.7709 7.1235V2.8125C24.769 2.21631 24.5138 1.64505 24.061 1.22348C23.6082 0.801905 22.9946 0.564281 22.3542 0.5625Z" fill="white"/>
<path d="M24.7709 2.8125V9.5625H4.22925V2.8125C4.23116 2.21631 4.48639 1.64505 4.93919 1.22348C5.39198 0.801905 6.00556 0.564281 6.64591 0.5625H22.3542C22.9946 0.564281 23.6082 0.801905 24.061 1.22348C24.5138 1.64505 24.769 2.21631 24.7709 2.8125Z" stroke="#00303E" stroke-linecap="round" stroke-linejoin="round"/>
<path d="M24.7709 9.5625V23.0625C24.7709 23.6592 24.5163 24.2315 24.0631 24.6535C23.6099 25.0754 22.9952 25.3125 22.3542 25.3125H6.64591C6.00497 25.3125 5.39029 25.0754 4.93707 24.6535C4.48386 24.2315 4.22925 23.6592 4.22925 23.0625V9.5625H24.7709Z" fill="#DFF9FF" stroke="#00303E" stroke-linecap="round" stroke-linejoin="round"/>
<path d="M7.85425 26.4375V25.3125" stroke="#00303E" stroke-linecap="round" stroke-linejoin="round"/>
<path d="M21.1458 26.4375V25.3125" stroke="#00303E" stroke-linecap="round" stroke-linejoin="round"/>
<path d="M7.85425 2.8125V7.3125" stroke="#00303E" stroke-linecap="round" stroke-linejoin="round"/>
<path d="M7.85425 11.8125V18.5625" stroke="#00303E" stroke-linecap="round" stroke-linejoin="round"/>
</svg>
