<svg width="14" height="9" viewBox="0 0 14 9" fill="none" xmlns="http://www.w3.org/2000/svg">
<mask id="mask0_19_72" style="mask-type:luminance" maskUnits="userSpaceOnUse" x="0" y="0" width="14" height="9">
<path d="M13.6867 0.257812H0V8.41135H13.6867V0.257812Z" fill="white"/>
</mask>
<g mask="url(#mask0_19_72)">
<path d="M0.775152 8.41137C0.348591 8.41137 0 8.12788 0 7.781V3.55131C0 3.20443 0.348591 2.92096 0.775152 2.92096H2.79789L2.82999 2.90976L2.87586 2.87247L2.88962 2.84636V0.888164C2.88962 0.541286 3.23821 0.257812 3.66477 0.257812H12.9115C13.3381 0.257812 13.6867 0.541286 13.6867 0.888164V5.11787C13.6867 5.46475 13.3381 5.74819 12.9115 5.74819H10.9301L10.898 5.75942L10.8521 5.79672L10.8384 5.82282V7.781C10.8384 8.12788 10.4898 8.41137 10.0632 8.41137H0.775152ZM0.775152 3.24172C0.564162 3.24172 0.394458 3.37973 0.394458 3.55131V7.781C0.394458 7.9526 0.564162 8.09059 0.775152 8.09059H10.0632C10.2742 8.09059 10.4439 7.9526 10.4439 7.781V3.55131C10.4439 3.37973 10.2742 3.24172 10.0632 3.24172H0.775152ZM3.3437 1.92134L3.29784 1.95864L3.28408 1.98475V2.84636L3.29784 2.87247L3.3437 2.90976L3.37581 2.92096H10.0632C10.4898 2.92096 10.8384 3.20443 10.8384 3.55131V5.35283L10.8521 5.37894L10.898 5.41627L10.9301 5.42746H12.9115C13.1225 5.42746 13.2922 5.28943 13.2922 5.11787V1.98475L13.2785 1.95864L13.2326 1.92134L13.2005 1.91015H3.37581L3.3437 1.92134ZM3.66477 0.578585C3.45379 0.578585 3.28408 0.716588 3.28408 0.888164V1.51479L3.29784 1.5409L3.3437 1.57819L3.37581 1.58938H13.2005L13.2326 1.57819L13.2785 1.5409L13.2922 1.51479V0.888164C13.2922 0.716588 13.1225 0.578585 12.9115 0.578585H3.66477Z" fill="#FE0000"/>
<path d="M6.26541 7.07981C5.97875 7.07981 5.6944 7.01825 5.4467 6.90076L5.42377 6.89518H5.37791L5.35497 6.90076C5.10727 7.01825 4.82293 7.07981 4.53395 7.07981C3.62808 7.07981 2.89191 6.48113 2.89191 5.7445C2.89191 5.00782 3.62808 4.40918 4.53395 4.40918C4.82293 4.40918 5.10727 4.47074 5.35497 4.58823L5.37791 4.59381H5.42377L5.4467 4.58823C5.6944 4.47074 5.97875 4.40918 6.26541 4.40918C7.17131 4.40918 7.90747 5.00782 7.90747 5.7445C7.90747 6.48113 7.17131 7.07981 6.26541 7.07981ZM6.26541 4.72996C5.57743 4.72996 5.01786 5.18499 5.01786 5.7445C5.01786 6.30396 5.57743 6.75903 6.26541 6.75903C6.95344 6.75903 7.513 6.30396 7.513 5.7445C7.513 5.18499 6.95344 4.72996 6.26541 4.72996ZM4.53165 4.72996C3.84365 4.72996 3.28407 5.18499 3.28407 5.7445C3.28407 6.30396 3.84365 6.75903 4.53165 6.75903C4.67384 6.75903 4.81602 6.74039 4.94902 6.70121L4.97886 6.67695L4.99952 6.61916L4.99035 6.58559C4.75409 6.34875 4.62339 6.05035 4.62339 5.74634C4.62339 5.44237 4.75409 5.14397 4.99035 4.90713L4.99952 4.87356L4.97886 4.81573L4.94902 4.79151C4.81602 4.7486 4.67384 4.72996 4.53165 4.72996Z" fill="#FE0000"/>
</g>
</svg>
