<svg width="29" height="28" viewBox="0 0 29 28" fill="none" xmlns="http://www.w3.org/2000/svg">
<g clip-path="url(#clip0_25_119)">
<path d="M22.3542 1.16663H6.64591C6.00497 1.16663 5.39029 1.41246 4.93707 1.85004C4.48386 2.28763 4.22925 2.88112 4.22925 3.49996V12.8333C4.22925 13.4521 4.48386 14.0456 4.93707 14.4832C5.39029 14.9208 6.00497 15.1666 6.64591 15.1666H22.3542C22.9952 15.1666 23.6099 14.9208 24.0631 14.4832C24.5163 14.0456 24.7709 13.4521 24.7709 12.8333V3.49996C24.7709 2.88112 24.5163 2.28763 24.0631 1.85004C23.6099 1.41246 22.9952 1.16663 22.3542 1.16663Z" fill="#66E1FF"/>
<path d="M6.64591 15.1666H8.15633L22.6394 1.18296C22.5448 1.17222 22.4495 1.16676 22.3542 1.16663H6.64591C6.00497 1.16663 5.39029 1.41246 4.93707 1.85004C4.48386 2.28763 4.22925 2.88112 4.22925 3.49996V12.8333C4.22925 13.4521 4.48386 14.0456 4.93707 14.4832C5.39029 14.9208 6.00497 15.1666 6.64591 15.1666Z" fill="#C2F3FF"/>
<path d="M22.3542 1.16663H6.64591C6.00497 1.16663 5.39029 1.41246 4.93707 1.85004C4.48386 2.28763 4.22925 2.88112 4.22925 3.49996V12.8333C4.22925 13.4521 4.48386 14.0456 4.93707 14.4832C5.39029 14.9208 6.00497 15.1666 6.64591 15.1666H22.3542C22.9952 15.1666 23.6099 14.9208 24.0631 14.4832C24.5163 14.0456 24.7709 13.4521 24.7709 12.8333V3.49996C24.7709 2.88112 24.5163 2.28763 24.0631 1.85004C23.6099 1.41246 22.9952 1.16663 22.3542 1.16663Z" stroke="#191919" stroke-linecap="round" stroke-linejoin="round"/>
<path d="M28.3076 24.8418C28.3896 25.0672 28.4145 25.3082 28.3803 25.5448C28.346 25.7814 28.2535 26.0066 28.1106 26.2016C27.9677 26.3966 27.7785 26.5557 27.5588 26.6656C27.3391 26.7755 27.0953 26.833 26.8479 26.8333H2.15201C1.9045 26.8333 1.6606 26.776 1.44077 26.6661C1.22095 26.5563 1.0316 26.3972 0.888627 26.2021C0.745649 26.007 0.653207 25.7817 0.619054 25.545C0.584902 25.3083 0.610035 25.0672 0.692346 24.8418L3.42439 17.367C3.65963 16.7235 4.09579 16.1663 4.67275 15.7723C5.24971 15.3782 5.93907 15.1666 6.6458 15.1666H22.3541C23.0607 15.1665 23.75 15.3781 24.3268 15.7722C24.9036 16.1663 25.3395 16.7235 25.5743 17.367L28.3076 24.8418Z" fill="#E3E3E3" stroke="#191919" stroke-linecap="round" stroke-linejoin="round"/>
<path d="M18.7291 26.8334H10.2708L11.4791 23.3334H17.5208L18.7291 26.8334Z" fill="#808080" stroke="#191919" stroke-linecap="round" stroke-linejoin="round"/>
<path d="M6.63989 18.6666H7.84823" stroke="#191919" stroke-linecap="round" stroke-linejoin="round"/>
<path d="M10.2649 18.6666H11.4732" stroke="#191919" stroke-linecap="round" stroke-linejoin="round"/>
<path d="M17.5149 18.6666H18.7232" stroke="#191919" stroke-linecap="round" stroke-linejoin="round"/>
<path d="M21.1399 18.6666H22.3482" stroke="#191919" stroke-linecap="round" stroke-linejoin="round"/>
<path d="M13.8899 18.6666H15.0982" stroke="#191919" stroke-linecap="round" stroke-linejoin="round"/>
<path d="M5.4314 21H6.63973" stroke="#191919" stroke-linecap="round" stroke-linejoin="round"/>
<path d="M9.0564 21H19.9314" stroke="#191919" stroke-linecap="round" stroke-linejoin="round"/>
<path d="M22.3481 21H23.5565" stroke="#191919" stroke-linecap="round" stroke-linejoin="round"/>
</g>
<defs>
<clipPath id="clip0_25_119">
<rect width="29" height="28" fill="white"/>
</clipPath>
</defs>
</svg>
