<svg width="29" height="27" viewBox="0 0 29 27" fill="none" xmlns="http://www.w3.org/2000/svg">
<path fill-rule="evenodd" clip-rule="evenodd" d="M14.5 2.53125C9.40186 2.53125 6.29463 2.6962 4.48133 2.85542C2.71335 3.01065 1.39105 4.25209 1.22101 5.89123C1.06392 7.40576 0.90625 9.83751 0.90625 13.4999C0.90625 17.1624 1.06393 19.5942 1.22103 21.1088C1.39105 22.7478 2.71329 23.9893 4.48123 24.1445C6.29451 24.3038 9.4018 24.4688 14.5 24.4688C19.5982 24.4688 22.7055 24.3038 24.5188 24.1445C26.2867 23.9893 27.609 22.7478 27.779 21.1088C27.9361 19.5942 28.0938 17.1624 28.0938 13.4999C28.0938 9.83751 27.9361 7.40576 27.779 5.89123C27.609 4.2521 26.2866 3.01065 24.5187 2.85542C22.7054 2.6962 19.5981 2.53125 14.5 2.53125Z" fill="#8FBFFA"/>
<path fill-rule="evenodd" clip-rule="evenodd" d="M12.3854 20.5312C9.36658 20.5312 7.50278 20.4777 6.40018 20.425C5.41623 20.3781 4.67273 19.6656 4.62957 18.7545C4.5814 17.7375 4.53125 16.0633 4.53125 13.5C4.53125 10.9367 4.5814 9.26246 4.62957 8.24552C4.67273 7.33444 5.41621 6.62186 6.40012 6.57495C7.50272 6.52236 9.36652 6.46875 12.3854 6.46875C15.4043 6.46875 17.2681 6.52236 18.3707 6.57495C19.3546 6.62186 20.0981 7.33444 20.1413 8.24552C20.1894 9.26246 20.2396 10.9367 20.2396 13.5C20.2396 16.0633 20.1894 17.7375 20.1413 18.7545C20.0981 19.6656 19.3546 20.3781 18.3707 20.425C17.268 20.4777 15.4043 20.5312 12.3854 20.5312Z" fill="#2859C5"/>
<path d="M22.9583 10.9688C22.4578 10.9688 22.052 11.3465 22.052 11.8125C22.052 12.2785 22.4578 12.6562 22.9583 12.6562H24.1666C24.6671 12.6562 25.0728 12.2785 25.0728 11.8125C25.0728 11.3465 24.6671 10.9688 24.1666 10.9688H22.9583Z" fill="#2859C5"/>
<path d="M22.9583 8.15625C22.4578 8.15625 22.052 8.53402 22.052 9C22.052 9.46598 22.4578 9.84375 22.9583 9.84375H24.1666C24.6671 9.84375 25.0728 9.46598 25.0728 9C25.0728 8.53402 24.6671 8.15625 24.1666 8.15625H22.9583Z" fill="#2859C5"/>
<path d="M22.052 18C22.052 18.466 22.4578 18.8438 22.9583 18.8438H24.1666C24.6671 18.8438 25.0728 18.466 25.0728 18C25.0728 17.534 24.6671 17.1562 24.1666 17.1562H22.9583C22.4578 17.1562 22.052 17.534 22.052 18Z" fill="#2859C5"/>
</svg>
