<svg width="29" height="26" viewBox="0 0 29 26" fill="none" xmlns="http://www.w3.org/2000/svg">
<path d="M27.9205 5.21438C27.9205 5.99622 27.2137 6.62997 26.3416 6.62997H2.65827C1.78622 6.62997 1.07935 5.99622 1.07935 5.21438V3.79889C1.07935 3.01705 1.78622 2.3833 2.65827 2.3833H26.3416C27.2137 2.3833 27.9205 3.01705 27.9205 3.79889V5.21438Z" stroke="white" stroke-linecap="round" stroke-linejoin="round"/>
<path d="M27.9205 13.7078C27.9205 14.4896 27.2137 15.1234 26.3416 15.1234H2.65827C1.78622 15.1234 1.07935 14.4896 1.07935 13.7078V12.2923C1.07935 11.5105 1.78622 10.8767 2.65827 10.8767H26.3416C27.2137 10.8767 27.9205 11.5105 27.9205 12.2923V13.7078Z" stroke="white" stroke-linecap="round" stroke-linejoin="round"/>
<path d="M27.9205 22.2012C27.9205 22.983 27.2137 23.6168 26.3416 23.6168H2.65827C1.78622 23.6168 1.07935 22.983 1.07935 22.2012V20.7857C1.07935 20.0039 1.78622 19.3701 2.65827 19.3701H26.3416C27.2137 19.3701 27.9205 20.0039 27.9205 20.7857V22.2012Z" stroke="white" stroke-linecap="round" stroke-linejoin="round"/>
</svg>
