<svg width="14" height="15" viewBox="0 0 14 15" fill="none" xmlns="http://www.w3.org/2000/svg">
<path d="M11.6667 5.33333H9V2.44444C9 2.06136 8.85956 1.69395 8.60951 1.42307C8.35947 1.15219 8.02027 1 7.66667 1H6.33333C5.97973 1 5.64053 1.15219 5.39049 1.42307C5.14048 1.69395 5 2.06136 5 2.44444V5.33333H2.33333C1.97972 5.33333 1.64057 5.48552 1.39052 5.75636C1.14048 6.02724 1 6.39471 1 6.77778V8.22222C1 8.60529 1.14048 8.97276 1.39052 9.24364C1.64057 9.51452 1.97972 9.66667 2.33333 9.66667H5V12.5556C5 12.9386 5.14048 13.3061 5.39049 13.577C5.64053 13.8479 5.97973 14 6.33333 14H7.66667C8.02027 14 8.35947 13.8479 8.60951 13.577C8.85956 13.3061 9 12.9386 9 12.5556V9.66667H11.6667C12.0203 9.66667 12.3595 9.51452 12.6095 9.24364C12.8596 8.97276 13 8.60529 13 8.22222V6.77778C13 6.39471 12.8596 6.02724 12.6095 5.75636C12.3595 5.48552 12.0203 5.33333 11.6667 5.33333Z" stroke="black" stroke-width="1.5" stroke-linecap="round" stroke-linejoin="round"/>
</svg>
