<svg width="29" height="28" viewBox="0 0 29 28" fill="none" xmlns="http://www.w3.org/2000/svg">
<path d="M4.83569 10.5001C4.83569 12.9754 5.85414 15.3494 7.667 17.0997C9.47985 18.8501 11.9386 19.8334 14.5024 19.8334C17.0661 19.8334 19.5249 18.8501 21.3377 17.0997C23.1506 15.3494 24.169 12.9754 24.169 10.5001C24.169 8.02473 23.1506 5.65076 21.3377 3.90042C19.5249 2.15008 17.0661 1.16675 14.5024 1.16675C11.9386 1.16675 9.47985 2.15008 7.667 3.90042C5.85414 5.65076 4.83569 8.02473 4.83569 10.5001Z" fill="#DFF9FF"/>
<path d="M14.5001 8.16676C14.8834 8.16657 15.2613 8.25497 15.6021 8.42459L18.2459 1.89126C17.0485 1.40777 15.7626 1.16142 14.4647 1.16684C13.1668 1.17225 11.8833 1.4293 10.6902 1.92276L13.4029 8.42109C13.7426 8.25366 14.1186 8.16649 14.5001 8.16676Z" fill="white"/>
<path d="M12.0941 10.7451L5.02051 12.319C5.51003 14.6989 6.94026 16.8012 9.00801 18.1803L13.3181 12.5383C12.9803 12.3559 12.6928 12.0978 12.4797 11.7858C12.2667 11.4737 12.1345 11.1168 12.0941 10.7451Z" fill="white"/>
<path d="M15.6841 12.5323L20.0256 18.1603C22.0795 16.7807 23.4993 14.6859 23.9865 12.3165L16.9009 10.7415C16.8609 11.1121 16.7296 11.4681 16.5179 11.7796C16.3062 12.0912 16.0203 12.3493 15.6841 12.5323Z" fill="white"/>
<path d="M12.0808 19.5393H16.9141V23.3333H12.0808V19.5393Z" fill="#9FEAFF"/>
<path d="M4.83325 25.0833C4.83325 25.5474 5.02421 25.9925 5.36412 26.3207C5.70403 26.6489 6.16505 26.8333 6.64575 26.8333H22.3541C22.8348 26.8333 23.2958 26.6489 23.6357 26.3207C23.9756 25.9925 24.1666 25.5474 24.1666 25.0833C24.1666 24.6191 23.9756 24.174 23.6357 23.8458C23.2958 23.5176 22.8348 23.3333 22.3541 23.3333H6.64575C6.16505 23.3333 5.70403 23.5176 5.36412 23.8458C5.02421 24.174 4.83325 24.6191 4.83325 25.0833Z" fill="#9FEAFF"/>
<path d="M24.1666 25.0833C24.1666 24.6191 23.9756 24.174 23.6357 23.8458C23.2958 23.5176 22.8348 23.3333 22.3541 23.3333H6.64575C6.16505 23.3333 5.70403 23.5176 5.36412 23.8458C5.02421 24.174 4.83325 24.6191 4.83325 25.0833H24.1666Z" fill="#DFF9FF"/>
<path d="M4.83569 10.5001C4.83569 12.9754 5.85414 15.3494 7.66699 17.0997C9.47985 18.8501 11.9386 19.8334 14.5024 19.8334C17.0661 19.8334 19.5249 18.8501 21.3377 17.0997C23.1506 15.3494 24.169 12.9754 24.169 10.5001C24.169 8.02473 23.1506 5.65076 21.3377 3.90042C19.5249 2.15008 17.0661 1.16675 14.5024 1.16675C11.9386 1.16675 9.47985 2.15008 7.66699 3.90042C5.85414 5.65076 4.83569 8.02473 4.83569 10.5001Z" stroke="#00303E" stroke-linecap="round" stroke-linejoin="round"/>
<path d="M12.0808 10.5001C12.0808 11.1189 12.3354 11.7124 12.7886 12.15C13.2418 12.5876 13.8565 12.8334 14.4975 12.8334C15.1384 12.8334 15.7531 12.5876 16.2063 12.15C16.6595 11.7124 16.9141 11.1189 16.9141 10.5001C16.9141 9.88124 16.6595 9.28775 16.2063 8.85017C15.7531 8.41258 15.1384 8.16675 14.4975 8.16675C13.8565 8.16675 13.2418 8.41258 12.7886 8.85017C12.3354 9.28775 12.0808 9.88124 12.0808 10.5001Z" fill="#9FEAFF" stroke="#00303E" stroke-linecap="round" stroke-linejoin="round"/>
<path d="M16.9143 23.3334V19.5405" stroke="#00303E" stroke-linecap="round" stroke-linejoin="round"/>
<path d="M12.0808 19.5371V23.3334" stroke="#00303E" stroke-linecap="round" stroke-linejoin="round"/>
<path d="M4.83325 25.0833C4.83325 25.5474 5.02421 25.9925 5.36412 26.3207C5.70403 26.6489 6.16505 26.8333 6.64575 26.8333H22.3541C22.8348 26.8333 23.2958 26.6489 23.6357 26.3207C23.9756 25.9925 24.1666 25.5474 24.1666 25.0833C24.1666 24.6191 23.9756 24.174 23.6357 23.8458C23.2958 23.5176 22.8348 23.3333 22.3541 23.3333H6.64575C6.16505 23.3333 5.70403 23.5176 5.36412 23.8458C5.02421 24.174 4.83325 24.6191 4.83325 25.0833Z" stroke="#00303E" stroke-linecap="round" stroke-linejoin="round"/>
<path d="M12.1086 10.7415L5.02051 12.3188" stroke="#00303E" stroke-linecap="round" stroke-linejoin="round"/>
<path d="M9.0105 18.1814L13.3255 12.5312" stroke="#00303E" stroke-linecap="round" stroke-linejoin="round"/>
<path d="M16.8997 10.7415L23.9865 12.3176" stroke="#00303E" stroke-linecap="round" stroke-linejoin="round"/>
<path d="M20.0268 18.1604L15.6829 12.5312" stroke="#00303E" stroke-linecap="round" stroke-linejoin="round"/>
<path d="M13.4017 8.42205L10.6877 1.92139" stroke="#00303E" stroke-linecap="round" stroke-linejoin="round"/>
<path d="M18.2434 1.89111L15.5996 8.42445" stroke="#00303E" stroke-linecap="round" stroke-linejoin="round"/>
<path d="M19.3308 23.3333V24.4999" stroke="#00303E" stroke-linecap="round" stroke-linejoin="round"/>
<path d="M21.7476 23.3333V24.4999" stroke="#00303E" stroke-linecap="round" stroke-linejoin="round"/>
</svg>
