<svg width="29" height="28" viewBox="0 0 29 28" fill="none" xmlns="http://www.w3.org/2000/svg">
<path d="M22.3541 15.7488H6.64575V25.0821H22.3541V15.7488Z" fill="#808080" stroke="#191919" stroke-linecap="round" stroke-linejoin="round"/>
<path d="M22.3541 12.2499V15.7499H6.64575V12.2499C6.64575 11.9405 6.77306 11.6438 6.99966 11.425C7.22627 11.2062 7.53361 11.0833 7.85409 11.0833H21.1458C21.4662 11.0833 21.7736 11.2062 22.0002 11.425C22.2267 11.6438 22.3541 11.9405 22.3541 12.2499Z" fill="#E3E3E3"/>
<path d="M21.1458 11.0833H7.85409C7.53361 11.0833 7.22627 11.2062 6.99966 11.425C6.77306 11.6438 6.64575 11.9405 6.64575 12.2499V14.5833C6.64575 14.2739 6.77306 13.9771 6.99966 13.7583C7.22627 13.5396 7.53361 13.4166 7.85409 13.4166H21.1458C21.4662 13.4166 21.7736 13.5396 22.0002 13.7583C22.2267 13.9771 22.3541 14.2739 22.3541 14.5833V12.2499C22.3541 11.9405 22.2267 11.6438 22.0002 11.425C21.7736 11.2062 21.4662 11.0833 21.1458 11.0833Z" fill="white"/>
<path d="M22.3541 12.2499V15.7499H6.64575V12.2499C6.64575 11.9405 6.77306 11.6438 6.99966 11.425C7.22627 11.2062 7.53361 11.0833 7.85409 11.0833H21.1458C21.4662 11.0833 21.7736 11.2062 22.0002 11.425C22.2267 11.6438 22.3541 11.9405 22.3541 12.2499Z" stroke="#191919" stroke-linecap="round" stroke-linejoin="round"/>
<path d="M6.64575 25.0833H22.3541V26.2499C22.3541 26.5593 22.2267 26.8561 22.0002 27.0749C21.7736 27.2936 21.4662 27.4166 21.1458 27.4166H7.85409C7.53361 27.4166 7.22627 27.2936 6.99966 27.0749C6.77306 26.8561 6.64575 26.5593 6.64575 26.2499V25.0833Z" fill="#E3E3E3" stroke="#191919" stroke-linecap="round" stroke-linejoin="round"/>
<path d="M15.4063 13.7083C15.2395 13.7083 15.1042 13.5778 15.1042 13.4167C15.1042 13.2555 15.2395 13.125 15.4063 13.125" stroke="#191919"/>
<path d="M15.4062 13.7083C15.5731 13.7083 15.7083 13.5778 15.7083 13.4167C15.7083 13.2555 15.5731 13.125 15.4062 13.125" stroke="#191919"/>
<path d="M19.0313 13.7083C18.8645 13.7083 18.7292 13.5778 18.7292 13.4167C18.7292 13.2555 18.8645 13.125 19.0313 13.125" stroke="#191919"/>
<path d="M19.0312 13.7083C19.1981 13.7083 19.3333 13.5778 19.3333 13.4167C19.3333 13.2555 19.1981 13.125 19.0312 13.125" stroke="#191919"/>
<path d="M10.2708 0.583252C9.95036 0.583252 9.64302 0.706168 9.41641 0.92496C9.18981 1.14375 9.0625 1.4405 9.0625 1.74992V6.41659C9.0625 7.03542 9.31711 7.62892 9.77033 8.0665C10.2235 8.50409 10.8382 8.74992 11.4792 8.74992H17.5208C18.1617 8.74992 18.7764 8.50409 19.2297 8.0665C19.6829 7.62892 19.9375 7.03542 19.9375 6.41659V1.74992C19.9375 1.4405 19.8101 1.14375 19.5836 0.92496C19.357 0.706168 19.0496 0.583252 18.7292 0.583252H10.2708Z" fill="#66E1FF"/>
<path d="M14.5 0.583252H10.2708C9.95036 0.583252 9.64302 0.706168 9.41641 0.92496C9.18981 1.14375 9.0625 1.4405 9.0625 1.74992V6.41659C9.0625 7.03542 9.31711 7.62892 9.77033 8.0665C10.2235 8.50409 10.8382 8.74992 11.4792 8.74992H14.5V0.583252Z" fill="#C2F3FF"/>
<path d="M10.2708 0.583252C9.95036 0.583252 9.64302 0.706168 9.41641 0.92496C9.18981 1.14375 9.0625 1.4405 9.0625 1.74992V6.41659C9.0625 7.03542 9.31711 7.62892 9.77033 8.0665C10.2235 8.50409 10.8382 8.74992 11.4792 8.74992H17.5208C18.1617 8.74992 18.7764 8.50409 19.2297 8.0665C19.6829 7.62892 19.9375 7.03542 19.9375 6.41659V1.74992C19.9375 1.4405 19.8101 1.14375 19.5836 0.92496C19.357 0.706168 19.0496 0.583252 18.7292 0.583252H10.2708Z" stroke="#191919" stroke-linecap="round" stroke-linejoin="round"/>
<path d="M11.4792 8.75H17.5209V11.0833H11.4792V8.75Z" fill="white" stroke="#191919" stroke-linecap="round" stroke-linejoin="round"/>
<path d="M9.0625 2.91675H12.0833" stroke="#191919" stroke-linecap="round" stroke-linejoin="round"/>
<path d="M9.0625 5.25H12.0833" stroke="#191919" stroke-linecap="round" stroke-linejoin="round"/>
<path d="M14.5 15.75V17.5" stroke="#191919" stroke-linecap="round" stroke-linejoin="round"/>
<path d="M16.3922 25.0834H12.6077L12.0833 21.0724C12.0726 20.9899 12.0803 20.9063 12.1059 20.827C12.1314 20.7476 12.1741 20.6745 12.2314 20.6124C12.2886 20.5502 12.3589 20.5008 12.4376 20.4669C12.5162 20.4332 12.6014 20.4162 12.6874 20.4168H16.3124C16.3985 20.4162 16.4837 20.4332 16.5623 20.4669C16.641 20.5008 16.7113 20.5502 16.7685 20.6124C16.8257 20.6745 16.8685 20.7476 16.894 20.827C16.9196 20.9063 16.9272 20.9899 16.9166 21.0724L16.3922 25.0834Z" fill="#66E1FF" stroke="#191919" stroke-linecap="round" stroke-linejoin="round"/>
</svg>
